<svg xmlns="http://www.w3.org/2000/svg" viewBox="0 0 200 120" width="100%" height="100%">
  <!-- Cánh Thiên Thần (Angel Wings) -->
  <g transform="translate(100, 60)">
    <!-- Left Wing -->
    <path d="M-10 0 C-40 -40, -80 -50, -95 -20 C-90 -10, -70 0, -60 10 C-80 15, -85 25, -70 35 C-60 30, -50 20, -40 25 C-60 40, -50 50, -35 50 C-30 40, -20 20, -10 0 Z" fill="#FFF" stroke="#E0F7FA" stroke-width="2" stroke-linejoin="round" />
    <path d="M-20 -5 C-40 -20, -60 -25, -70 -10" fill="none" stroke="#E0F7FA" stroke-width="2" stroke-linecap="round" />
    
    <!-- Right Wing -->
    <path d="M10 0 C40 -40, 80 -50, 95 -20 C90 -10, 70 0, 60 10 C80 15, 85 25, 70 35 C60 30, 50 20, 40 25 C60 40, 50 50, 35 50 C30 40, 20 20, 10 0 Z" fill="#FFF" stroke="#E0F7FA" stroke-width="2" stroke-linejoin="round" />
    <path d="M20 -5 C40 -20, 60 -25, 70 -10" fill="none" stroke="#E0F7FA" stroke-width="2" stroke-linecap="round" />
  </g>
</svg>
